# xmcd
#
# Track frame offsets:
#	150
#	19629
#	29744
#	57805
#	76277
#	97229
#	117910
#	128664
#	141221
#	161913
#
# Disc length: 2530 seconds
#
# Revision: 1
# Processed by: cddbd v1.5PL3 Copyright (c) Steve Scherf et al.
# Submitted via: EasyCDDAExtractor 7.0.4.1
#
DISCID=8609e00a
DTITLE=John Lee Hooker - Boom Boom
DYEAR=1900
DGENRE=Blues
TTITLE0=Boom Boom
TTITLE1=I'm Bad Like Jesus James
TTITLE2=Same Old Blues Again
TTITLE3=Sugar Mama
TTITLE4=Trick Bag
TTITLE5=Boogie at Russian Hill
TTITLE6=Hittin' The Bottle Again
TTITLE7=Bottle Up and Go
TTITLE8=Thought I Heard
TTITLE9=I Ain't Gonna Suffer No More
EXTD=
EXTT0=
EXTT1=
EXTT2=
EXTT3=
EXTT4=
EXTT5=
EXTT6=
EXTT7=
EXTT8=
EXTT9=
PLAYORDER=
